<svg width="24" height="24" viewBox="0 0 24 24" fill="none" xmlns="http://www.w3.org/2000/svg">
<path d="M12 1.75C9.97275 1.75 7.99101 2.35115 6.30541 3.47744C4.61981 4.60372 3.30604 6.20455 2.53024 8.07749C1.75444 9.95044 1.55146 12.0114 1.94696 13.9997C2.34245 15.988 3.31867 17.8144 4.75216 19.2478C6.18565 20.6813 8.01202 21.6576 10.0003 22.053C11.9886 22.4485 14.0496 22.2456 15.9225 21.4698C17.7955 20.694 19.3963 19.3802 20.5226 17.6946C21.6489 16.009 22.25 14.0273 22.25 12C22.2474 9.28234 21.1666 6.67675 19.2449 4.75508C17.3232 2.83341 14.7177 1.75265 12 1.75ZM17.07 10.09L11.7 15.46C11.5183 15.6527 11.2964 15.8029 11.05 15.9C10.553 16.1 9.997 16.1 9.5 15.9C9.2564 15.7977 9.03548 15.6482 8.85001 15.46L6.19 12.8C6.09221 12.7085 6.01378 12.5983 5.95935 12.4759C5.90493 12.3535 5.87562 12.2214 5.87317 12.0875C5.87072 11.9536 5.89517 11.8205 5.94507 11.6962C5.99497 11.5719 6.06931 11.4589 6.16369 11.3638C6.25807 11.2688 6.37056 11.1937 6.49451 11.1429C6.61845 11.0921 6.75133 11.0667 6.88527 11.0682C7.0192 11.0697 7.15147 11.0981 7.27424 11.1516C7.39702 11.2052 7.50779 11.2829 7.6 11.38L10.27 14.05L15.65 8.68C15.743 8.58627 15.8536 8.51188 15.9754 8.46111C16.0973 8.41034 16.228 8.3842 16.36 8.3842C16.492 8.3842 16.6227 8.41034 16.7446 8.46111C16.8664 8.51188 16.977 8.58627 17.07 8.68C17.2473 8.86598 17.3462 9.11306 17.3462 9.37C17.3462 9.62694 17.2473 9.87402 17.07 10.06V10.09Z" fill="#181D27"/>
</svg>
