<svg width="24" height="24" viewBox="0 0 24 24" fill="none" xmlns="http://www.w3.org/2000/svg">
<path d="M20.5 7.50587C20.5 6.654 20.1607 5.83647 19.5576 5.23341C18.9549 4.6307 18.1375 4.29204 17.2852 4.29201H6.71289C5.86053 4.29204 5.04314 4.6307 4.44043 5.23341C3.83772 5.83612 3.49906 6.65352 3.49902 7.50587V14.1133C3.49893 14.5354 3.58171 14.9538 3.74316 15.3438C3.90463 15.7337 4.14203 16.0883 4.44043 16.3867C4.73869 16.685 5.09278 16.9215 5.48242 17.083C5.87237 17.2446 6.2908 17.3281 6.71289 17.3281H9.3584L9.50488 17.3428C9.64908 17.3716 9.78316 17.4424 9.88867 17.5479L12 19.6592L14.1123 17.5479L14.2266 17.4541C14.3488 17.3725 14.4934 17.3282 14.6426 17.3281H17.2861L17.4443 17.3242C17.8125 17.3062 18.1754 17.2243 18.5166 17.083C18.9065 16.9215 19.2612 16.6852 19.5596 16.3867C19.8579 16.0883 20.0945 15.7337 20.2559 15.3438C20.4173 14.9537 20.5002 14.5354 20.5 14.1133V7.50587ZM11.2549 15.249V10.1992C11.2549 9.78507 11.5907 9.44931 12.0049 9.44923C12.4191 9.44923 12.7549 9.78502 12.7549 10.1992V15.249C12.7549 15.6632 12.4191 15.999 12.0049 15.999C11.5907 15.999 11.2549 15.6632 11.2549 15.249ZM22 14.1123C22.0003 14.7315 21.8784 15.3449 21.6416 15.917C21.4048 16.4892 21.0579 17.0094 20.6201 17.4473C20.1824 17.8851 19.6628 18.2328 19.0908 18.4697C18.5188 18.7066 17.9053 18.8283 17.2861 18.8281H14.9541L12.9932 20.7881L12.9922 20.7871C12.8658 20.9169 12.7163 21.0219 12.5498 21.0938C12.3766 21.1684 12.1896 21.207 12.001 21.207C11.8123 21.207 11.6254 21.1684 11.4521 21.0938C11.2852 21.0218 11.1345 20.9173 11.0078 20.7871L9.04785 18.8281H6.71289C6.09387 18.8281 5.48108 18.7057 4.90918 18.4688C4.33717 18.2318 3.81666 17.8851 3.37891 17.4473C2.94116 17.0094 2.59425 16.4891 2.35742 15.917C2.12069 15.3451 1.99893 14.7322 1.99902 14.1133V7.50587C1.99906 6.25569 2.49587 5.05688 3.37988 4.17287C4.2639 3.28885 5.46271 2.79204 6.71289 2.79201H17.2852C18.5353 2.79204 19.7341 3.28885 20.6182 4.17287C21.5018 5.05654 22 6.25521 22 7.50587V14.1123Z" fill="#181D27"/>
<path d="M11.9039 5.99401C12.4562 5.99401 12.9039 6.44172 12.9039 6.99401C12.9039 7.54629 12.4562 7.99401 11.9039 7.99401H11.898C11.3457 7.99401 10.898 7.54629 10.898 6.99401C10.898 6.44172 11.3457 5.99401 11.898 5.99401H11.9039Z" fill="#181D27"/>
</svg>
