<svg width="24" height="24" viewBox="0 0 24 24" fill="none" xmlns="http://www.w3.org/2000/svg">
<path d="M20.4697 2.46972C20.7626 2.17683 21.2373 2.17683 21.5302 2.46972C21.8231 2.76262 21.8231 3.23738 21.5302 3.53027L15.6103 9.45019H19.4042C19.8183 9.45035 20.1542 9.78608 20.1542 10.2002C20.1541 10.6142 19.8183 10.95 19.4042 10.9502H13.7997C13.3857 10.9501 13.0499 10.6143 13.0497 10.2002V4.5957C13.0499 4.18169 13.3857 3.84581 13.7997 3.8457C14.2139 3.8457 14.5496 4.18162 14.5497 4.5957V8.38965L20.4697 2.46972ZM10.9501 19.4043C10.95 19.8183 10.6142 20.1542 10.2001 20.1543C9.78602 20.1543 9.4503 19.8184 9.45014 19.4043V15.6103L3.53022 21.5303C3.23732 21.8232 2.76256 21.8232 2.46967 21.5303C2.17678 21.2374 2.17678 20.7626 2.46967 20.4697L8.38959 14.5498H4.59565C4.18157 14.5496 3.84565 14.2139 3.84565 13.7998C3.84575 13.3858 4.18163 13.05 4.59565 13.0498H10.2001C10.6142 13.0499 10.95 13.3857 10.9501 13.7998V19.4043Z" fill="#181D27"/>
</svg>
