<svg width="24" height="24" viewBox="0 0 24 24" fill="none" xmlns="http://www.w3.org/2000/svg">
<path d="M17.7793 6.76464H6.21973V18.5293C6.21963 18.788 6.27116 19.0441 6.37012 19.2832C6.4691 19.5223 6.61391 19.7398 6.79688 19.9228C6.97989 20.1059 7.19738 20.2516 7.43652 20.3506C7.67552 20.4495 7.93178 20.5001 8.19043 20.5H15.8086C16.3311 20.5 16.8327 20.2923 17.2021 19.9228C17.5714 19.5535 17.7792 19.0526 17.7793 18.5303V6.76464ZM9.07422 16.9922V11.5527C9.07436 11.1386 9.41009 10.8027 9.82422 10.8027C10.2382 10.8029 10.5741 11.1387 10.5742 11.5527V16.9922C10.5741 17.4062 10.2382 17.742 9.82422 17.7422C9.41007 17.7422 9.07432 17.4063 9.07422 16.9922ZM13.4268 16.9922V11.5527C13.4269 11.1387 13.7627 10.8028 14.1768 10.8027C14.5909 10.8027 14.9266 11.1386 14.9268 11.5527V16.9922C14.9267 17.4063 14.5909 17.7422 14.1768 17.7422C13.7627 17.7421 13.4269 17.4062 13.4268 16.9922ZM10.3662 3.49999C10.2506 3.49983 10.1361 3.52232 10.0293 3.5664C9.92228 3.61059 9.82506 3.67596 9.74316 3.7578C9.66126 3.83966 9.59602 3.93694 9.55176 4.04394C9.5076 4.15078 9.48524 4.26524 9.48535 4.38085V5.26464H14.5146V4.38085C14.5148 4.26525 14.4924 4.15077 14.4482 4.04394C14.404 3.93696 14.3387 3.83965 14.2568 3.7578C14.1749 3.67595 14.0777 3.61059 13.9707 3.5664C13.8639 3.52231 13.7494 3.49984 13.6338 3.49999H10.3662ZM19.2793 18.5303C19.2792 19.4504 18.9133 20.3327 18.2627 20.9834C17.6119 21.6341 16.7289 22 15.8086 22H8.19141C7.73551 22.0002 7.28354 21.9107 6.8623 21.7363C6.44115 21.5619 6.05865 21.3057 5.73633 20.9834C5.41401 20.661 5.15777 20.2786 4.9834 19.8574C4.80903 19.4362 4.71956 18.9842 4.71973 18.5283V6.76464H3.29395C2.87973 6.76464 2.54395 6.42885 2.54395 6.01464C2.54414 5.60059 2.87985 5.26464 3.29395 5.26464H7.98535V4.38183C7.98511 4.06914 8.04653 3.75965 8.16602 3.4707C8.28572 3.18132 8.46111 2.91765 8.68262 2.69628C8.90394 2.47514 9.1669 2.30015 9.45605 2.18066C9.74515 2.06127 10.0554 2.00055 10.3682 2.00097V1.99999H13.6318V2.00097C13.9445 2.00056 14.254 2.06134 14.543 2.18066C14.8324 2.30017 15.0959 2.47497 15.3174 2.69628C15.5389 2.91765 15.7143 3.18132 15.834 3.4707C15.9535 3.75965 16.0149 4.06916 16.0146 4.38183V5.26464H18.5098C18.5161 5.26448 18.5229 5.26366 18.5293 5.26366C18.5358 5.26367 18.5423 5.26447 18.5488 5.26464H20.7061C21.1201 5.2647 21.4559 5.60063 21.4561 6.01464C21.4561 6.42882 21.1202 6.76458 20.7061 6.76464H19.2793V18.5303Z" fill="#181D27"/>
</svg>
